{"title":"Hol volt, hol nem volt/A hungarian fairy tale(1987)En subbed","uid":10988033,"size":1568617182,"categoryP":"video","categoryS":"movies","magnet":"?xt=urn:btih:bf54d09ea830d42939cd40e3f29e3d7c1fd434eb&amp;dn=Hol+volt%2C+hol+nem+volt%2FA+hungarian+fairy+tale%281987%29En+subbed&amp;tr=udp%3A%2F%2Ftracker.openbittorrent.com%3A80&amp;tr=udp%3A%2F%2Fopen.demonii.com%3A1337&amp;tr=udp%3A%2F%2Ftracker.coppersurfer.tk%3A6969&amp;tr=udp%3A%2F%2Fexodus.desync.com%3A6969","seeders":0,"leechers":2,"uploader":"app1985","files":-1,"time":1409949653,"description":"[emule]\n\n\ned2k://|file|Gyula.Gazdag.-.(1987).A.Hungarian.Fairy.Tale.mkv|1568617182|A3240EEDD01B8DA24FF3441EF991394C|/\n\n\n\n &lt;a href=&quot;\nhttp://www.imdb.com/title/tt0093199/&quot; rel=&quot;nofollow&quot; target=&quot;_NEW&quot;&gt;\nhttp://www.imdb.com/title/tt0093199/&lt;/a&gt;\n\n\n\nscreens:\n &lt;a href=&quot;\nhttp://bayimg.com/LaApoaAgd&quot; rel=&quot;nofollow&quot; target=&quot;_NEW&quot;&gt;\nhttp://bayimg.com/LaApoaAgd&lt;/a&gt;\n &lt;a href=&quot;\nhttp://bayimg.com/MaApAaaGD&quot; rel=&quot;nofollow&quot; target=&quot;_NEW&quot;&gt;\nhttp://bayimg.com/MaApAaaGD&lt;/a&gt;\n &lt;a href=&quot;\nhttp://bayimg.com/maApbaaGd&quot; rel=&quot;nofollow&quot; target=&quot;_NEW&quot;&gt;\nhttp://bayimg.com/maApbaaGd&lt;/a&gt;\n\n\n\n\nGeneral\nUnique ID                      : 175301720010744243315793411864406746568 (0x83E1E2188D36C5BAB1030447547765C8)\nComplete name                  : Gyula Gazdag - (1987) A Hungarian Fairy Tale.mkv\nFormat                         : Matroska\nFormat version                 : Version 4 / Version 2\nFile size                      : 1.46 GiB\nDuration                       : 1h 37mn\nOverall bit rate               : 2 144 Kbps\nEncoded date                   : UTC 2014-01-24 15:39:52\nWriting application            : mkvmerge v6.6.0 ('The Edge Of The In Between') built on Dec  1 2013 17:55:00\nWriting library                : libebml v1.3.0 + libmatroska v1.4.1\n\nVideo\nID                             : 1\nFormat                         : AVC\nFormat/Info                    : Advanced Video Codec\nFormat profile                 : &lt;a class=&quot;__cf_email__&quot; href=&quot;/cdn-cgi/l/email-protection&quot; data-cfemail=&quot;df97b6b8b79f93ecf1ee&quot;&gt;[email&amp;#160;protected]&lt;/a&gt;&lt;script cf-hash='f9e31' type=&quot;text/javascript&quot;&gt;\n/* &lt;![CDATA[ */!function(){try{var t=&quot;currentScript&quot;in document?document.currentScript:function(){for(var t=document.getElementsByTagName(&quot;script&quot;),e=t.length;e--;)if(t[e].getAttribute(&quot;cf-hash&quot;))return t[e]}();if(t&amp;&amp;t.previousSibling){var e,r,n,i,c=t.previousSibling,a=c.getAttribute(&quot;data-cfemail&quot;);if(a){for(e=&quot;&quot;,r=parseInt(a.substr(0,2),16),n=2;a.length-n;n+=2)i=parseInt(a.substr(n,2),16)^r,e+=String.fromCharCode(i);e=document.createTextNode(e),c.parentNode.replaceChild(e,c)}}}catch(u){}}();/* ]]&gt; */&lt;/script&gt;\nFormat settings, CABAC         : Yes\nFormat settings, ReFrames      : 8 frames\nCodec ID                       : V_MPEG4/ISO/AVC\nDuration                       : 1h 37mn\nBit rate                       : 1 950 Kbps\nWidth                          : 708 pixels\nHeight                         : 478 pixels\nDisplay aspect ratio           : 4:3\nOriginal display aspect ratio  : 4:3\nFrame rate mode                : Constant\nFrame rate                     : 25.000 fps\nColor space                    : YUV\nChroma subsampling             : 4:2:0\nBit depth                      : 8 bits\nScan type                      : Progressive\nBits/(Pixel*Frame)             : 0.230\nStream size                    : 1.30 GiB (89%)\nWriting library                : x264 core 140 r2377 1ca7bb9\nEncoding settings              : cabac=1 / ref=8 / deblock=1:0:0 / analyse=0x3:0x133 / me=umh / subme=9 / psy=1 / psy_rd=1.00:0.15 / mixed_ref=1 / me_range=28 / chroma_me=1 / trellis=2 / 8x8dct=1 / cqm=0 / deadzone=21,11 / fast_pskip=0 / chroma_qp_offset=-3 / threads=3 / lookahead_threads=1 / sliced_threads=0 / nr=0 / decimate=0 / interlaced=0 / bluray_compat=0 / constrained_intra=0 / bframes=5 / b_pyramid=2 / b_adapt=2 / b_bias=0 / direct=3 / weightb=1 / open_gop=0 / weightp=2 / keyint=250 / keyint_min=25 / scenecut=40 / intra_refresh=0 / rc_lookahead=60 / rc=2pass / mbtree=1 / bitrate=1950 / ratetol=3.0 / qcomp=0.60 / qpmin=0 / qpmax=69 / qpstep=4 / cplxblur=20.0 / qblur=0.5 / vbv_maxrate=14000 / vbv_bufsize=14000 / nal_hrd=none / filler=0 / ip_ratio=1.40 / aq=1:1.00\nLanguage                       : English\nDefault                        : Yes\nForced                         : No\n\nAudio\nID                             : 2\nFormat                         : AC-3\nFormat/Info                    : Audio Coding 3\nMode extension                 : CM (complete main)\nFormat settings, Endianness    : Big\nCodec ID                       : A_AC3\nDuration                       : 1h 37mn\nBit rate mode                  : Constant\nBit rate                       : 192 Kbps\nChannel(s)                     : 2 channels\nChannel positions              : Front: L R\nSampling rate                  : 48.0 KHz\nBit depth                      : 16 bits\nCompression mode               : Lossy\nStream size                    : 134 MiB (9%)\nDefault                        : Yes\nForced                         : No","torrent":{"xt":"urn:btih:bf54d09ea830d42939cd40e3f29e3d7c1fd434eb","amp;dn":"Hol+volt%2C+hol+nem+volt%2FA+hungarian+fairy+tale%281987%29En+subbed","amp;tr":["udp%3A%2F%2Ftracker.openbittorrent.com%3A80","udp%3A%2F%2Fopen.demonii.com%3A1337","udp%3A%2F%2Ftracker.coppersurfer.tk%3A6969","udp%3A%2F%2Fexodus.desync.com%3A6969"],"infoHash":"bf54d09ea830d42939cd40e3f29e3d7c1fd434eb","infoHashBuffer":{"type":"Buffer","data":[191,84,208,158,168,48,212,41,57,205,64,227,242,158,61,124,31,212,52,235]},"announce":[],"urlList":[]}}